PathFileType	4	(x/y/z)	S08_M20_T01
DataRate	CameraRate	NumFrames	NumMarkers	Units	OrigDataRate	OrigDataStartFrame	OrigNumFrames
240	240	4	51	mm	240	316	504
Frame#	Time	Sternum			R.Acromium			L.Acromium			Top.Head			R.ASIS			L.ASIS			R.PSIS			L.PSIS			R.Great.Tro			L.Great.Tro			R.Iliac.Crest			L.Iliac.Crest			V.Sacral			R.Thigh.Upper.Post			R.Thigh.Lower.Ant			R.Thigh.Lower.Post			R.Thigh.Upper.Ant			R.Knee.Lat			R.Knee.Med			R.Shank.Upper.Post			R.Shank.Lower.Ant			R.Shank.Lower.Post			R.Shank.Upper.Ant			R.Ankle.Lat			R.Ankle.Med			R.Heel.Upper			R.Heel.Med			R.Heel.Lat			R.Toe.Lat			R.Toe.Med			R.Toe.Tip			L.Thigh.Upper.Post			L.Thigh.Lower.Ant			L.Thigh.Lower.Post			L.Thigh.Upper.Ant			L.Knee.Lat			L.Knee.Med			L.Shank.Upper.Post			L.Shank.Lower.Ant			L.Shank.Lower.Post			L.Shank.Upper.Ant			L.Ankle.Lat			L.Ankle.Med			L.Heel.Upper			L.Heel.Med			L.Heel.Lat			L.Toe.Lat			L.Toe.Med			L.Toe.Tip			Cervical.Spine			Back			
		X1	Y1	Z1	X2	Y2	Z2	X3	Y3	Z3	X4	Y4	Z4	X5	Y5	Z5	X6	Y6	Z6	X7	Y7	Z7	X8	Y8	Z8	X9	Y9	Z9	X10	Y10	Z10	X11	Y11	Z11	X12	Y12	Z12	X13	Y13	Z13	X14	Y14	Z14	X15	Y15	Z15	X16	Y16	Z16	X17	Y17	Z17	X18	Y18	Z18	X19	Y19	Z19	X20	Y20	Z20	X21	Y21	Z21	X22	Y22	Z22	X23	Y23	Z23	X24	Y24	Z24	X25	Y25	Z25	X26	Y26	Z26	X27	Y27	Z27	X28	Y28	Z28	X29	Y29	Z29	X30	Y30	Z30	X31	Y31	Z31	X32	Y32	Z32	X33	Y33	Z33	X34	Y34	Z34	X35	Y35	Z35	X36	Y36	Z36	X37	Y37	Z37	X38	Y38	Z38	X39	Y39	Z39	X40	Y40	Z40	X41	Y41	Z41	X42	Y42	Z42	X43	Y43	Z43	X44	Y44	Z44	X45	Y45	Z45	X46	Y46	Z46	X47	Y47	Z47	X48	Y48	Z48	X49	Y49	Z49	X50	Y50	Z50	X51	Y51	Z51	

316	1.3125	156.98	1183.9	294.15	54.555	1418.7	470.76	20.193	1450.3	135.75	52.469	1740.7	313.78	126.27	971.36	421.88	155.29	972.82	189.93	-62.757	1000	319.11	-47.343	1001.4	226.04	27.101	873.08	481.26	80.832	866.78	111.03	29.726	1043.8	452.4	60.509	1052.1	143.21	-72.88	960.74	270.4	-64.413	696.52	459.99	-23.069	576.16	430.71	-86.401	609.91	437.17	8.5633	663.76	455.18	-94.905	497.43	417.74	-106.13	509.22	289.78	-242.09	365.86	417.13	-218.98	282.34	391.07	-279.84	299.65	405.19	-180	348.83	405.28	-361.83	151.61	360.29	-327.27	155.54	282.8	-420.22	134.46	308.37	-417.76	106.11	280.46	-426.14	109.3	342.31	NaN	NaN	NaN	-245.92	42.557	273.23	-183.77	43.022	322.88	141.62	658.96	128.51	256.35	613.06	155.72	192.81	586.2	149.37	210	685.11	129.53	251.02	505.48	169.3	251.44	507.08	296.8	269.21	317.5	170.26	366.58	266	191.23	296.08	250.34	186.39	332.81	332.92	175.55	392.05	101.24	200.87	412.68	120.37	287.01	357.01	58.984	254.15	385.56	36.499	287.04	375.46	35.081	223.85	535.43	98.439	185.48	551.35	119.17	297.55	596.93	162.92	245.73	-27.737	1479.7	303.58	-79.375	1196.6	312.32
317	1.3167	163.53	1183.6	293.78	60.513	1418.3	470.24	26.165	1449.8	135.2	57.926	1740.4	313.37	132.88	970.76	421.63	161.96	972.57	189.64	-56.043	999.71	318.73	-40.623	1001.2	225.66	33.461	872.54	480.76	87.653	866.73	110.56	36.409	1043.2	452.1	67.229	1051.9	142.87	-66.256	960.5	269.97	-58.342	696.2	459.6	-17.037	575.69	430.6	-80.337	609.54	436.74	14.649	663.32	454.96	-89.05	497.17	417.69	-99.851	508.71	289.7	-237.45	366.99	417.07	-215.15	283.15	391.34	-275.85	301.14	405.24	-175.57	349.33	405.47	-359.31	153.72	360.75	-324.49	157.15	283.32	-417.65	137.7	308.74	-415.69	109.51	280.64	-424.11	112.56	342.49	NaN	NaN	NaN	-245.47	42.662	273.35	-183.64	42.927	322.87	148.32	659.1	128.52	263	613.19	155.93	199.48	586.34	149.51	216.72	685.23	129.65	257.44	505.45	169.47	257.6	507.08	296.89	274.14	317.33	170.29	370.95	264.93	191.58	300.36	249.91	186.46	337.84	332.18	175.84	394.49	100.18	201.03	415.41	118.92	287.26	358.68	59.441	254.43	386.8	36.165	287.22	376.54	35.179	224.05	537.57	95.091	185.72	553.96	115.28	297.7	600.26	158.39	245.97	-21.824	1479.3	303	-72.856	1195.9	311.87
318	1.3208	170.11	1183.4	293.4	66.484	1417.9	469.71	32.152	1449.3	134.63	63.377	1740.1	312.96	139.54	970.2	421.36	168.64	972.4	189.33	-49.292	999.45	318.38	-33.895	1001.1	225.3	39.918	872	480.26	94.492	866.78	110.08	43.152	1042.7	451.81	73.949	1051.7	142.54	-59.615	960.32	269.56	-52.13	695.86	459.19	-10.846	575.23	430.48	-74.124	609.16	436.32	20.873	662.88	454.72	-83.02	496.9	417.65	-93.424	508.19	289.64	-232.63	368.14	417.02	-211.15	283.98	391.63	-271.69	302.67	405.3	-170.96	349.85	405.68	-356.62	155.87	361.24	-321.55	158.79	283.87	-414.89	141.06	309.13	-413.45	113.05	280.84	-421.9	115.96	342.7	NaN	NaN	NaN	-245	42.784	273.47	-183.51	42.833	322.86	155.04	659.33	128.52	269.67	613.4	156.14	206.16	586.56	149.62	223.46	685.44	129.77	263.88	505.52	169.61	263.73	507.15	296.93	279.06	317.27	170.29	375.31	263.94	191.91	304.61	249.57	186.49	342.87	331.54	176.11	396.85	99.197	201.15	418.05	117.55	287.47	360.27	59.991	254.68	387.92	35.919	287.37	377.5	35.366	224.22	539.6	91.736	185.96	556.44	111.38	297.85	603.5	153.79	246.2	-15.898	1478.8	302.42	-66.314	1195.4	311.43
319	1.325	176.7	1183.3	293	72.469	1417.7	469.17	38.151	1448.9	134.05	68.824	1739.9	312.56	146.24	969.68	421.07	175.33	972.33	189.01	-42.507	999.24	318.07	-27.165	1001	224.96	46.468	871.48	479.74	101.34	866.93	109.58	49.952	1042.3	451.54	80.662	1051.7	142.23	-52.961	960.21	269.18	-45.778	695.51	458.76	-4.4934	574.77	430.34	-67.757	608.76	435.89	27.236	662.46	454.45	-76.811	496.62	417.6	-86.839	507.65	289.58	-227.61	369.3	416.97	-206.97	284.83	391.94	-267.34	304.22	405.38	-166.17	350.36	405.9	-353.74	158.08	361.77	-318.44	160.47	284.47	-411.91	144.55	309.57	-411.02	116.72	281.08	-419.5	119.5	342.95	NaN	NaN	NaN	-244.5	42.927	273.6	-183.37	42.737	322.84	161.79	659.67	128.48	276.36	613.7	156.34	212.87	586.88	149.7	230.23	685.74	129.9	270.34	505.67	169.72	269.83	507.28	296.93	283.99	317.31	170.25	379.64	263.04	192.22	308.86	249.33	186.5	347.89	330.98	176.36	399.12	98.304	201.25	420.61	116.26	287.66	361.79	60.624	254.92	388.92	35.76	287.49	378.37	35.635	224.36	541.51	88.402	186.2	558.8	107.5	297.99	606.63	149.17	246.45	-9.962	1478.5	301.82	-59.754	1194.8	311
